HIERARCHY
ROOT hip
{
	OFFSET	0.00  0.00  0.00 
	CHANNELS 6 Xposition Yposition Zposition Xrotation Zrotation Yrotation
	JOINT abdomen
	{
		OFFSET	0.000000 1.799998 0.000000
		CHANNELS 3 Xrotation Zrotation Yrotation
		JOINT chest
		{
			OFFSET	0.000000 4.464001 -0.360000
			CHANNELS 3 Xrotation Zrotation Yrotation
			JOINT neck
			{
				OFFSET	0.000000 5.400002 -0.144000
				CHANNELS 3 Xrotation Zrotation Yrotation
				JOINT head
				{
					OFFSET	0.000000 1.655998 0.000000
					CHANNELS 3 Xrotation Zrotation Yrotation
				}
			}
			JOINT lCollar
			{
				OFFSET	1.872000 3.528000 -0.432000
				CHANNELS 3 Yrotation Zrotation Xrotation
				JOINT lShldr
				{
					OFFSET	1.656000 0.000000 0.000000
					CHANNELS 3 Zrotation Yrotation Xrotation
					JOINT lForeArm
					{
						OFFSET	5.400000 0.000000 0.000000
						CHANNELS 3 Yrotation Zrotation Xrotation
						JOINT lHand
						{
							OFFSET	4.392000 0.000000 0.000000
							CHANNELS 3 Zrotation Yrotation Xrotation
						}
					}
				}
			}
			JOINT rCollar
			{
				OFFSET	-1.872000 3.528000 -0.432000
				CHANNELS 3 Yrotation Zrotation Xrotation
				JOINT rShldr
				{
					OFFSET	-1.656000 0.000000 0.000000
					CHANNELS 3 Zrotation Yrotation Xrotation
					JOINT rForeArm
					{
						OFFSET	-5.400000 0.000000 0.000000
						CHANNELS 3 Yrotation Zrotation Xrotation
						JOINT rHand
						{
							OFFSET	-4.392000 0.000000 0.000000
							CHANNELS 3 Zrotation Yrotation Xrotation
						}
					}
				}
			}
		}
	}
	JOINT lThigh
	{
		OFFSET	2.808000 -0.864002 0.720000
		CHANNELS 3 Xrotation Zrotation Yrotation
		JOINT lShin
		{
			OFFSET	-1.080000 -10.583999 0.000000
			CHANNELS 3 Xrotation Zrotation Yrotation
			JOINT lFoot
			{
				OFFSET	0.000000 -10.152000 -0.648000
				CHANNELS 3 Xrotation Yrotation Zrotation
				End Site
				{
					OFFSET 0.000000 -1.296000 2.448000
				}
			}
		}
	}
	JOINT rThigh
	{
		OFFSET	-2.808000 -0.864002 0.720000
		CHANNELS 3 Xrotation Zrotation Yrotation
		JOINT rShin
		{
			OFFSET	1.080000 -10.583999 0.000000
			CHANNELS 3 Xrotation Zrotation Yrotation
			JOINT rFoot
			{
				OFFSET	0.000000 -10.152000 -0.648000
				CHANNELS 3 Xrotation Yrotation Zrotation
				End Site
				{
					OFFSET 0.000000 -1.296000 2.448000
				}
			}
		}
	}
}
MOTION
Frames:     14
Frame Time: 0.033333
2.566336 41.529343 -4.632455 35.970833 0.849007 -0.090601 19.996271 -0.431395 10.017913 -7.142930 -1.438287 -7.216144 24.524271 -0.930145 0.191033 -33.049664 0.000000 0.000000 -30.000000 7.378441 -10.000000 -78.093208 39.841465 18.269281 -19.771929 0.000000 20.000000 29.770895 6.535756 -31.250099 30.000000 -7.378441 -10.000000 78.093208 -39.841465 18.269281 19.771929 0.000000 20.000000 -29.770895 -6.535756 -31.250099 -18.747313 60.000000 50.000000 137.197021 -5.000000 -0.259062 68.834900 -24.384605 0.179732 -16.500370 -60.000000 -50.000000 133.641296 5.000000 0.285314 68.261520 24.117327 -0.422990 
2.566358 40.884773 -4.632390 35.830528 0.849007 -0.090601 20.052059 -0.453217 9.988909 -7.343862 -1.501726 -7.195580 25.174080 -0.897419 0.191033 -33.170162 0.000000 0.000000 -30.000000 8.992734 -10.000000 -79.264282 39.929848 17.762636 -18.337429 0.000000 20.000000 30.464798 6.630375 -32.196327 30.000000 -8.992734 -10.000000 79.264282 -39.929848 17.762636 18.337429 0.000000 20.000000 -30.464798 -6.630375 -32.196327 -16.857016 60.000000 50.000000 136.671494 -5.000000 -0.259204 68.912163 -24.600866 0.180620 -14.830972 -60.000000 -50.000000 133.235687 5.000000 0.284570 68.648399 24.705454 -0.415678 
2.566375 40.181179 -4.632323 35.628117 0.849006 -0.090601 20.046694 -0.475202 9.959193 -7.521748 -1.559760 -7.179164 25.800198 -0.864576 0.191033 -33.256638 0.000000 0.000000 -30.000000 10.530764 -10.000000 -80.380013 39.906040 17.279924 -16.980412 0.000000 20.000000 31.089455 6.715552 -33.048130 30.000000 -10.530764 -10.000000 80.380013 -39.906040 17.279924 16.980412 0.000000 20.000000 -31.089455 -6.715552 -33.048130 -15.088037 60.000000 50.000000 135.967209 -5.000000 -0.259261 68.837906 -24.752510 0.181327 -13.289027 -60.000000 -50.000000 132.661575 5.000000 0.283667 68.884727 25.228878 -0.407483 
2.566386 39.422409 -4.632277 35.366810 0.849006 -0.090601 19.985878 -0.497240 9.928942 -7.674654 -1.612312 -7.167659 26.390188 -0.831954 0.191033 -33.308819 0.000000 0.000000 -30.000000 11.982952 -10.000000 -81.433456 39.766792 16.824154 -15.713568 0.000000 20.000000 31.638935 6.790477 -33.797424 30.000000 -11.982952 -10.000000 81.433456 -39.766792 16.824154 15.713568 0.000000 20.000000 -31.638935 -6.790477 -33.797424 -13.472527 60.000000 50.000000 135.102676 -5.000000 -0.259230 68.599594 -24.842295 0.181829 -11.904676 -60.000000 -50.000000 131.936340 5.000000 0.282608 68.955193 25.687031 -0.398459 
2.566389 38.612240 -4.632273 35.049809 0.849006 -0.090601 19.875315 -0.519219 9.898328 -7.800653 -1.659306 -7.161832 26.931623 -0.799890 0.191033 -33.326431 0.000000 0.000000 -30.000000 13.339739 -10.000000 -82.417679 39.508850 16.398323 -14.549570 0.000000 20.000000 32.107311 6.854343 -34.436123 30.000000 -13.339739 -10.000000 82.417679 -39.508850 16.398323 14.549570 0.000000 20.000000 -32.107311 -6.854343 -34.436123 -12.042607 60.000000 50.000000 134.096390 -5.000000 -0.259109 68.184685 -24.872982 0.182104 -10.708039 -60.000000 -50.000000 131.077362 5.000000 0.281400 68.844482 26.079344 -0.388660 
2.566380 37.754379 -4.632335 34.680317 0.849005 -0.090601 19.720705 -0.541032 9.867529 -7.897810 -1.700667 -7.162447 27.412067 -0.768722 0.191033 -33.309200 0.000000 0.000000 -30.000000 14.591544 -10.000000 -83.325729 39.128967 16.005440 -13.501110 0.000000 20.000000 32.488655 6.906342 -34.956142 30.000000 -14.591544 -10.000000 83.325729 -39.128967 16.005440 13.501110 0.000000 20.000000 -32.488655 -6.906342 -34.956142 -10.830425 60.000000 50.000000 132.966873 -5.000000 -0.258895 67.580650 -24.847334 0.182128 -9.729255 -60.000000 -50.000000 130.102020 5.000000 0.280048 68.537277 26.405243 -0.378138 
2.566360 36.852444 -4.632485 34.261536 0.849005 -0.090600 19.527752 -0.562567 9.836719 -7.964192 -1.736316 -7.170269 27.819082 -0.738788 0.191032 -33.256855 0.000000 0.000000 -30.000000 15.728795 -10.000000 -84.150665 38.623890 15.648511 -12.580871 0.000000 20.000000 32.777031 6.945663 -35.349392 30.000000 -15.728795 -10.000000 84.150665 -38.623890 15.648511 12.580871 0.000000 20.000000 -32.777031 -6.945663 -35.349392 -9.868119 60.000000 50.000000 131.732635 -5.000000 -0.258586 66.774963 -24.768110 0.181877 -8.998453 -60.000000 -50.000000 129.027710 5.000000 0.278559 68.018265 26.664158 -0.366948 
2.566324 35.909973 -4.632745 33.796669 0.849005 -0.090600 19.302158 -0.583716 9.806070 -7.997869 -1.766178 -7.186063 28.140226 -0.710425 0.191032 -33.169121 0.000000 0.000000 -30.000000 16.741915 -10.000000 -84.885529 37.990372 15.330543 -11.801538 0.000000 20.000000 32.966507 6.971499 -35.607784 30.000000 -16.741915 -10.000000 84.885529 -37.990372 15.330543 11.801538 0.000000 20.000000 -32.966507 -6.971499 -35.607784 -9.187829 60.000000 50.000000 130.412170 -5.000000 -0.258179 65.755096 -24.638071 0.181329 -8.545767 -60.000000 -50.000000 127.871834 5.000000 0.276936 67.272141 26.855518 -0.355142 
2.566272 34.930416 -4.633136 33.288910 0.849005 -0.090600 19.049618 -0.604367 9.775758 -7.996907 -1.790176 -7.210593 28.363062 -0.683970 0.191032 -33.045719 0.000000 0.000000 -30.000000 17.621334 -10.000000 -85.523376 37.225155 15.054532 -11.175787 0.000000 20.000000 33.051151 6.983039 -35.723228 30.000000 -17.621334 -10.000000 85.523376 -37.225155 15.054532 11.175787 0.000000 20.000000 -33.051151 -6.983039 -35.723228 -8.821686 60.000000 50.000000 129.023956 -5.000000 -0.257670 64.508492 -24.459974 0.180461 -8.401320 -60.000000 -50.000000 126.651741 5.000000 0.275187 66.283585 26.978750 -0.342775 
2.566200 33.917168 -4.633681 32.741467 0.849004 -0.090600 18.775831 -0.624412 9.745955 -7.959373 -1.808233 -7.244622 28.475153 -0.659761 0.191032 -32.886375 0.000000 0.000000 -30.000000 18.357475 -10.000000 -86.057266 36.324989 14.823485 -10.716305 0.000000 20.000000 33.025032 6.979475 -35.687634 30.000000 -18.357475 -10.000000 86.057266 -36.324989 14.823485 10.716305 0.000000 20.000000 -33.025032 -6.979475 -35.687634 -8.801829 60.000000 50.000000 127.586494 -5.000000 -0.257058 63.022614 -24.236578 0.179248 -8.595247 -60.000000 -50.000000 125.384804 5.000000 0.273316 65.037285 27.033281 -0.329899 
2.566107 32.873524 -4.634403 32.157539 0.849004 -0.090600 18.486502 -0.643740 9.716838 -7.883335 -1.820274 -7.288917 28.464066 -0.638135 0.191031 -32.690819 0.000000 0.000000 -30.000000 18.940767 -10.000000 -86.480263 35.286625 14.640410 -10.435776 0.000000 20.000000 32.882221 6.960000 -35.492912 30.000000 -18.940767 -10.000000 86.480263 -35.286625 14.640410 10.435776 0.000000 20.000000 -32.882221 -6.960000 -35.492912 -9.160400 60.000000 50.000000 126.118301 -5.000000 -0.256340 61.284943 -23.970644 0.177668 -9.157681 -60.000000 -50.000000 124.088417 5.000000 0.271330 63.517933 27.018541 -0.316567 
2.565991 31.802734 -4.635324 31.540333 0.849003 -0.090600 18.187334 -0.662242 9.688581 -7.766862 -1.826221 -7.344242 28.317362 -0.619429 0.191031 -32.458778 0.000000 0.000000 -30.000000 19.361637 -10.000000 -86.785416 34.106819 14.508312 -10.346883 0.000000 20.000000 32.616798 6.923803 -35.130981 30.000000 -19.361637 -10.000000 86.785416 -34.106819 14.508312 10.346883 0.000000 20.000000 -32.616798 -6.923803 -35.130981 -9.929532 60.000000 50.000000 124.637901 -5.000000 -0.255512 59.282951 -23.664936 0.175697 -10.118745 -60.000000 -50.000000 122.779976 5.000000 0.269233 61.710228 26.933962 -0.302834 
2.565849 30.707939 -4.636467 30.893042 0.849003 -0.090600 17.884026 -0.679807 9.661358 -7.608020 -1.825998 -7.411361 28.022602 -0.603982 0.191030 -32.189976 0.000000 0.000000 -30.000000 19.610514 -10.000000 -86.965775 32.782307 14.430191 -10.462308 0.000000 20.000000 32.222824 6.870077 -34.593754 30.000000 -19.610514 -10.000000 86.965775 -32.782307 14.430191 10.462308 0.000000 20.000000 -32.222824 -6.870077 -34.593754 -11.141367 60.000000 50.000000 123.163773 -5.000000 -0.254573 57.004086 -23.322208 0.173312 -11.508576 -60.000000 -50.000000 121.476837 5.000000 0.267032 59.598835 26.778969 -0.288753 
2.565681 29.592243 -4.637855 30.218876 0.849002 -0.090600 17.582277 -0.696326 9.635343 -7.404878 -1.819529 -7.491039 27.567354 -0.592131 0.191030 -31.884136 0.000000 0.000000 -30.000000 19.677824 -10.000000 -87.014389 31.309843 14.409053 -10.794736 0.000000 20.000000 31.694365 6.798012 -33.873138 30.000000 -19.677824 -10.000000 87.014389 -31.309843 14.409053 10.794736 0.000000 20.000000 -31.694365 -6.798012 -33.873138 -12.828042 60.000000 50.000000 121.714432 -5.000000 -0.253520 54.435825 -22.945221 0.170490 -13.357305 -60.000000 -50.000000 120.196396 5.000000 0.264732 57.168453 26.552990 -0.274376 
